<svg id="visual" viewBox="0 0 900 100" width="900" height="100" xmlns="http://www.w3.org/2000/svg" xmlns:xlink="http://www.w3.org/1999/xlink" version="1.1"><rect x="0" y="0" width="900" height="100" fill="#ffffff"></rect><path d="M0 18L7.5 25.7C15 33.3 30 48.7 45 48.8C60 49 75 34 90 30.5C105 27 120 35 135 35C150 35 165 27 180 27C195 27 210 35 225 43.5C240 52 255 61 270 63.5C285 66 300 62 315 61.8C330 61.7 345 65.3 360 58C375 50.7 390 32.3 405 34.5C420 36.7 435 59.3 450 62.8C465 66.3 480 50.7 495 48.7C510 46.7 525 58.3 540 63.3C555 68.3 570 66.7 585 66C600 65.3 615 65.7 630 65.7C645 65.7 660 65.3 675 60C690 54.7 705 44.3 720 47.2C735 50 750 66 765 70C780 74 795 66 810 61.8C825 57.7 840 57.3 855 60.2C870 63 885 69 892.5 72L900 75L900 101L892.5 101C885 101 870 101 855 101C840 101 825 101 810 101C795 101 780 101 765 101C750 101 735 101 720 101C705 101 690 101 675 101C660 101 645 101 630 101C615 101 600 101 585 101C570 101 555 101 540 101C525 101 510 101 495 101C480 101 465 101 450 101C435 101 420 101 405 101C390 101 375 101 360 101C345 101 330 101 315 101C300 101 285 101 270 101C255 101 240 101 225 101C210 101 195 101 180 101C165 101 150 101 135 101C120 101 105 101 90 101C75 101 60 101 45 101C30 101 15 101 7.5 101L0 101Z" fill="#fa7268"></path><path d="M0 67L7.5 67.2C15 67.3 30 67.7 45 66.5C60 65.3 75 62.7 90 60.2C105 57.7 120 55.3 135 51.5C150 47.7 165 42.3 180 47.7C195 53 210 69 225 72.7C240 76.3 255 67.7 270 59.7C285 51.7 300 44.3 315 48.5C330 52.7 345 68.3 360 76.3C375 84.3 390 84.7 405 84.8C420 85 435 85 450 83.5C465 82 480 79 495 73.8C510 68.7 525 61.3 540 63.3C555 65.3 570 76.7 585 73.8C600 71 615 54 630 47.3C645 40.7 660 44.3 675 48.7C690 53 705 58 720 59C735 60 750 57 765 59C780 61 795 68 810 70.5C825 73 840 71 855 71.2C870 71.3 885 73.7 892.5 74.8L900 76L900 101L892.5 101C885 101 870 101 855 101C840 101 825 101 810 101C795 101 780 101 765 101C750 101 735 101 720 101C705 101 690 101 675 101C660 101 645 101 630 101C615 101 600 101 585 101C570 101 555 101 540 101C525 101 510 101 495 101C480 101 465 101 450 101C435 101 420 101 405 101C390 101 375 101 360 101C345 101 330 101 315 101C300 101 285 101 270 101C255 101 240 101 225 101C210 101 195 101 180 101C165 101 150 101 135 101C120 101 105 101 90 101C75 101 60 101 45 101C30 101 15 101 7.5 101L0 101Z" fill="#f85454"></path><path d="M0 88L7.5 85.7C15 83.3 30 78.7 45 76.3C60 74 75 74 90 73.2C105 72.3 120 70.7 135 69.7C150 68.7 165 68.3 180 68.7C195 69 210 70 225 73.5C240 77 255 83 270 82.8C285 82.7 300 76.3 315 74.2C330 72 345 74 360 72.3C375 70.7 390 65.3 405 62.5C420 59.7 435 59.3 450 61.5C465 63.7 480 68.3 495 73.7C510 79 525 85 540 84.5C555 84 570 77 585 73.2C600 69.3 615 68.7 630 67.3C645 66 660 64 675 65C690 66 705 70 720 73.8C735 77.7 750 81.3 765 81.5C780 81.7 795 78.3 810 75.2C825 72 840 69 855 67.7C870 66.3 885 66.7 892.5 66.8L900 67L900 101L892.5 101C885 101 870 101 855 101C840 101 825 101 810 101C795 101 780 101 765 101C750 101 735 101 720 101C705 101 690 101 675 101C660 101 645 101 630 101C615 101 600 101 585 101C570 101 555 101 540 101C525 101 510 101 495 101C480 101 465 101 450 101C435 101 420 101 405 101C390 101 375 101 360 101C345 101 330 101 315 101C300 101 285 101 270 101C255 101 240 101 225 101C210 101 195 101 180 101C165 101 150 101 135 101C120 101 105 101 90 101C75 101 60 101 45 101C30 101 15 101 7.5 101L0 101Z" fill="#f42941"></path></svg>